inDegrees=no
num_controls=7
num_derivatives=13
num_iterations=124
num_multipliers=7
num_parameters=0
num_slacks=7
num_states=26
objective=1.446370
objective_accelerations=0.015026
objective_balance=0.002214
objective_effort=0.012304
objective_height=0.407495
objective_ligament=1.009331
solver_duration=1613.391425
status=Solve_Succeeded
success=true
DataType=double
version=3
OpenSimVersion=4.5
endheader
time	/jointset/ground_pelvis/pelvis_tilt/value	/jointset/ground_pelvis/pelvis_tx/value	/jointset/ground_pelvis/pelvis_ty/value	/jointset/hip_l/hip_flexion_l/value	/jointset/hip_l/hip_adduction_l/value	/jointset/hip_l/hip_rotation_l/value	/jointset/back/lumbar_extension/value	/jointset/patellofemoral_l/patellar_flexion_l/value	/jointset/knee_l/knee_flexion_l/value	/jointset/knee_l/knee_adduction_l/value	/jointset/knee_l/knee_rotation_l/value	/jointset/ankle_l/ankle_angle_l/value	/jointset/subtalar_l/subtalar_angle_l/value	/jointset/ground_pelvis/pelvis_tilt/speed	/jointset/ground_pelvis/pelvis_tx/speed	/jointset/ground_pelvis/pelvis_ty/speed	/jointset/hip_l/hip_flexion_l/speed	/jointset/hip_l/hip_adduction_l/speed	/jointset/hip_l/hip_rotation_l/speed	/jointset/back/lumbar_extension/speed	/jointset/patellofemoral_l/patellar_flexion_l/speed	/jointset/knee_l/knee_flexion_l/speed	/jointset/knee_l/knee_adduction_l/speed	/jointset/knee_l/knee_rotation_l/speed	/jointset/ankle_l/ankle_angle_l/speed	/jointset/subtalar_l/subtalar_angle_l/speed	/forceset/tau_hip_flexion_l	/forceset/tau_hip_adduction_l	/forceset/tau_hip_rotation_l	/forceset/tau_knee_flexion_l	/forceset/tau_ankle_angle_l	/forceset/tau_subtalar_angle_l	/forceset/tau_lumbar_extension	lambda_cid13_p0	lambda_cid13_p1	lambda_cid13_p2	lambda_cid13_p3	lambda_cid13_p4	lambda_cid13_p5	lambda_cid14_p0	/jointset/ground_pelvis/pelvis_tilt/accel	/jointset/ground_pelvis/pelvis_tx/accel	/jointset/ground_pelvis/pelvis_ty/accel	/jointset/hip_l/hip_flexion_l/accel	/jointset/hip_l/hip_adduction_l/accel	/jointset/hip_l/hip_rotation_l/accel	/jointset/back/lumbar_extension/accel	/jointset/patellofemoral_l/patellar_flexion_l/accel	/jointset/knee_l/knee_flexion_l/accel	/jointset/knee_l/knee_adduction_l/accel	/jointset/knee_l/knee_rotation_l/accel	/jointset/ankle_l/ankle_angle_l/accel	/jointset/subtalar_l/subtalar_angle_l/accel	gamma_cid13_p0	gamma_cid13_p1	gamma_cid13_p2	gamma_cid13_p3	gamma_cid13_p4	gamma_cid13_p5	gamma_cid14_p0
1.5	-0.3651402944940396	0.04014343227513323	0.8636143194726391	0.7153560376343613	-0.2797594174066488	-0.2539135886404039	-0.3248111421973768	0.258932445394075	0.2589324453940818	0.02527310922204205	-0.1744574061491397	0.01225258894868054	0.15045487099639	0.7302789639519002	0.2475897926278157	0.1601250518981371	-1.454281878664367	0.1103832737293876	-0.2484026098859856	0.5941571680530453	-0.6406210574617203	-0.6406210574617366	0.06660213521494207	-4.499741949979165e-05	0.09704909187887424	0.1530856115706715	-0.1451904955564955	0.07762129972440106	-0.01063546581811742	-0.003302635949118228	-0.002744333477146606	-0.02519335961540219	0.1346889915992857	-27.87199789143741	9.734965418901563	5.11944027378242	-2.310825779624795	-452.0282458974111	-32.35894023883929	-25.51849492507073	0.3066327665509255	0.4632948621930197	-0.0783917517722249	-1.13833644104409	0.1610436736364542	-0.2508371257881427	1.505453178625201	-0.4989865688284412	-0.4989865688284452	0.05391260866166495	-0.007208968188870376	0.4054399744921824	0.3396537971700387	3.351792284631932e-08	-6.007321227336477e-08	-7.591669662658886e-08	-5.275689958795312e-09	2.337126294043249e-08	-3.171853865559995e-08	1.589548593423312e-08
1.51	-0.3578229953531221	0.04264222180539731	0.8652113302649622	0.7007578956563272	-0.2786478491688186	-0.2564095074252937	-0.3187951219538398	0.2525020006033878	0.25250200060339	0.02594120848124399	-0.1744579044628771	0.01324315742578156	0.1520023380518483	0.7330831790989238	0.2521398045213323	0.1592435344687929	-1.465157056344914	0.111916168159294	-0.2507536051995682	0.6089870261506695	-0.6453844404347528	-0.6453844404347967	0.06700256057376346	-5.479668847177431e-05	0.1010549636961259	0.1563928603789047	-0.1401940830821689	0.07658370655894971	-0.01061395196169999	-0.004654152080175719	-0.001715577561264793	-0.02573835975424931	0.1309543094729996	-27.52079335193393	9.939295555349727	5.053591012295773	-2.283555243411462	-450.5642747447075	-32.39746429078638	-25.54090971184095	0.2526703433848532	0.4466067916074165	-0.09806073429967263	-1.033681419533244	0.1472923030773797	-0.2230896622038772	1.462773949992509	-0.4524985453465377	-0.4524985453506284	0.03081905710827736	0.002103495101602746	0.3967182118618189	0.3240388962370163	3.58783149912738e-08	-6.433717665472004e-08	-7.911107518601738e-08	-5.836707749625661e-09	3.044858416614869e-08	-3.429752801633411e-08	1.669070502929351e-08
1.52	-0.3504805831698036	0.04518566194233233	0.8667985200838348	0.6860566873038978	-0.2775213759916022	-0.258928107948937	-0.3126325987643935	0.2460264251062092	0.2460264251062036	0.02661285430556532	-0.1744585069890317	0.01427349610636029	0.1535824332901068	0.7353015724301967	0.2565199139620063	0.1581608572080326	-1.474895153544387	0.1133642616055884	-0.2529389576355733	0.6234577572347333	-0.6496471987600202	-0.6496471987600912	0.06731144823722202	-6.583990332512511e-05	0.1050031325741816	0.1596112481306192	-0.135197670607878	0.07554611339348394	-0.01059243810525079	-0.006005668211243529	-0.0006868216453913084	-0.02628335989311485	0.1272196273466891	-27.17168829166995	10.14478122530599	4.986657609415416	-2.269793438393348	-449.1356986190907	-32.44517479734837	-25.55936694779549	0.1894684034009662	0.4293143716242738	-0.1186237180554237	-0.9109203448292011	0.144083476914097	-0.2177085502725894	1.433627775913224	-0.3988616392753347	-0.3988616392753302	0.03560506958920941	-0.007457757365123917	0.3938993866527608	0.3218815858662522	3.833447852978023e-08	-6.869372151195018e-08	-8.20794904916628e-08	-6.503197773979349e-09	3.842107852221469e-08	-3.708165793155094e-08	1.747265600149934e-08
1.53	-0.3431188780759072	0.04777199527854383	0.868373891565991	0.6712637920291016	-0.2763808817085519	-0.2614676803691148	-0.3063274124122358	0.2395107132665876	0.2395107132665814	0.02728706093007328	-0.1744591857335946	0.01534294014384088	0.155194198081077	0.7369386052327963	0.2607118252143568	0.1568801423988964	-1.483479834891763	0.1147179769752307	-0.2549453997407393	0.6375015583306608	-0.653404893244907	-0.6534048932449583	0.06751288248656158	-7.046368878582251e-05	0.1088702585142964	0.1627220922021482	-0.130071225932604	0.07444572558331237	-0.01055774431731527	-0.007446432372877363	0.000354244548481566	-0.02684973575305101	0.1233510900670549	-26.82302940278109	10.36176961040871	4.91544459031134	-2.210051358236915	-447.6998805643832	-32.49106954680665	-25.57371207900641	0.1357024796174005	0.4088887517781249	-0.1377794616151567	-0.8016230779176455	0.1285339755002882	-0.1875824917143972	1.378063046737797	-0.3506856953552269	-0.350685695352243	0.009847047601233932	0.002940051615195668	0.3808105658567465	0.3027644420439313	4.08923991739356e-08	-7.314863312479736e-08	-8.480781984016369e-08	-7.281752046451586e-09	4.734469432927735e-08	-4.008374968590562e-08	1.824050959317219e-08
1.54	-0.3357438263017891	0.0503991995772269	0.8699354590802011	0.6563911737311923	-0.2752273465900971	-0.2640264113005639	-0.2998841266950569	0.2329601320136639	0.2329601320136564	0.02796276878607885	-0.1744599297678605	0.01645059371435688	0.1568364870376125	0.7379709084724899	0.2646941064563219	0.1554000636188146	-1.490839758168167	0.1159724286853124	-0.2567706598889372	0.6510776302387795	-0.6566210814201883	-0.6566210814202198	0.06761169453569858	-7.88978441773045e-05	0.1126450391810451	0.1657160812435847	-0.1249447812573601	0.07334533777313265	-0.01052305052933938	-0.008887196534519793	0.001395310742347794	-0.0274161116129984	0.1194825527873989	-26.47630682216106	10.58001867497698	4.84297794922631	-2.163325908805561	-446.2945332900183	-32.54525116503532	-25.58379768681181	0.06852249081994101	0.3873883695469713	-0.1584965122445585	-0.6659687306344994	0.1242307450020145	-0.1814721588788931	1.340081938351618	-0.2905603773541671	-0.2905603773541559	0.01508062954881894	-0.008219831351255136	0.3754303319792927	0.2985105798477324	4.363649063804778e-08	-7.804720062833703e-08	-8.745791683342085e-08	-8.176726310031543e-09	5.695405876305097e-08	-4.348597432541549e-08	1.902213685388543e-08
